<?xml version="1.0"?>
<mxfile host="app.diagrams.net" agent="NodeGenerated" version="26.1.3">
  <diagram id="diagram-all-tables" name="Page-1">
    <mxGraphModel dx="1434" dy="785" grid="1" gridSize="10" guides="1" tooltips="1" connect="1" arrows="1" fold="1" page="1" pageScale="1" pageWidth="827" pageHeight="1169" math="0" shadow="0">
      <root>
        <mxCell id="0"/>
        <mxCell id="1" parent="0"/>
        <mxCell id="customers-0" value="customers" style="swimlane;fontStyle=2;align=center;verticalAlign=top;childLayout=stackLayout;horizontal=1;startSize=26;horizontalStack=0;resizeParent=1;resizeLast=0;collapsible=1;marginBottom=0;rounded=0;shadow=0;strokeWidth=1;" parent="1" vertex="1">
          <mxGeometry x="220" y="120" width="240" height="1382" as="geometry">
            <mxRectangle x="230" y="140" width="240" height="26" as="alternateBounds"/>
          </mxGeometry>
        </mxCell>
        <mxCell id="customers-0-1" value="id" style="text;align=left;verticalAlign=top;spacingLeft=4;spacingRight=4;overflow=hidden;rotatable=0;points=[[0,0.5],[1,0.5]];portConstraint=eastwest;" parent="customers-0" vertex="1">
          <mxGeometry y="26" width="240" height="26" as="geometry"/>
        </mxCell>
        <mxCell id="customers-0-2" value="customer_code" style="text;align=left;verticalAlign=top;spacingLeft=4;spacingRight=4;overflow=hidden;rotatable=0;points=[[0,0.5],[1,0.5]];portConstraint=eastwest;" parent="customers-0" vertex="1">
          <mxGeometry y="52" width="240" height="26" as="geometry"/>
        </mxCell>
        <mxCell id="customers-0-3" value="customer_parent" style="text;align=left;verticalAlign=top;spacingLeft=4;spacingRight=4;overflow=hidden;rotatable=0;points=[[0,0.5],[1,0.5]];portConstraint=eastwest;" parent="customers-0" vertex="1">
          <mxGeometry y="78" width="240" height="26" as="geometry"/>
        </mxCell>
        <mxCell id="customers-0-4" value="tank_customer_code" style="text;align=left;verticalAlign=top;spacingLeft=4;spacingRight=4;overflow=hidden;rotatable=0;points=[[0,0.5],[1,0.5]];portConstraint=eastwest;" parent="customers-0" vertex="1">
          <mxGeometry y="104" width="240" height="26" as="geometry"/>
        </mxCell>
        <mxCell id="customers-0-5" value="accounting_code" style="text;align=left;verticalAlign=top;spacingLeft=4;spacingRight=4;overflow=hidden;rotatable=0;points=[[0,0.5],[1,0.5]];portConstraint=eastwest;" parent="customers-0" vertex="1">
          <mxGeometry y="130" width="240" height="26" as="geometry"/>
        </mxCell>
        <mxCell id="customers-0-6" value="customer_code_old" style="text;align=left;verticalAlign=top;spacingLeft=4;spacingRight=4;overflow=hidden;rotatable=0;points=[[0,0.5],[1,0.5]];portConstraint=eastwest;" parent="customers-0" vertex="1">
          <mxGeometry y="156" width="240" height="26" as="geometry"/>
        </mxCell>
        <mxCell id="customers-0-7" value="filemaker_id" style="text;align=left;verticalAlign=top;spacingLeft=4;spacingRight=4;overflow=hidden;rotatable=0;points=[[0,0.5],[1,0.5]];portConstraint=eastwest;" parent="customers-0" vertex="1">
          <mxGeometry y="182" width="240" height="26" as="geometry"/>
        </mxCell>
        <mxCell id="customers-0-8" value="partner_id" style="text;align=left;verticalAlign=top;spacingLeft=4;spacingRight=4;overflow=hidden;rotatable=0;points=[[0,0.5],[1,0.5]];portConstraint=eastwest;" parent="customers-0" vertex="1">
          <mxGeometry y="208" width="240" height="26" as="geometry"/>
        </mxCell>
        <mxCell id="customers-0-9" value="special_price" style="text;align=left;verticalAlign=top;spacingLeft=4;spacingRight=4;overflow=hidden;rotatable=0;points=[[0,0.5],[1,0.5]];portConstraint=eastwest;" parent="customers-0" vertex="1">
          <mxGeometry y="234" width="240" height="26" as="geometry"/>
        </mxCell>
        <mxCell id="customers-0-10" value="country" style="text;align=left;verticalAlign=top;spacingLeft=4;spacingRight=4;overflow=hidden;rotatable=0;points=[[0,0.5],[1,0.5]];portConstraint=eastwest;" parent="customers-0" vertex="1">
          <mxGeometry y="260" width="240" height="26" as="geometry"/>
        </mxCell>
        <mxCell id="customers-0-11" value="tax_number" style="text;align=left;verticalAlign=top;spacingLeft=4;spacingRight=4;overflow=hidden;rotatable=0;points=[[0,0.5],[1,0.5]];portConstraint=eastwest;" parent="customers-0" vertex="1">
          <mxGeometry y="286" width="240" height="26" as="geometry"/>
        </mxCell>
        <mxCell id="customers-0-12" value="tax_number_gasoilpro" style="text;align=left;verticalAlign=top;spacingLeft=4;spacingRight=4;overflow=hidden;rotatable=0;points=[[0,0.5],[1,0.5]];portConstraint=eastwest;" parent="customers-0" vertex="1">
          <mxGeometry y="312" width="240" height="26" as="geometry"/>
        </mxCell>
        <mxCell id="customers-0-13" value="company_name" style="text;align=left;verticalAlign=top;spacingLeft=4;spacingRight=4;overflow=hidden;rotatable=0;points=[[0,0.5],[1,0.5]];portConstraint=eastwest;" parent="customers-0" vertex="1">
          <mxGeometry y="338" width="240" height="26" as="geometry"/>
        </mxCell>
        <mxCell id="customers-0-14" value="address" style="text;align=left;verticalAlign=top;spacingLeft=4;spacingRight=4;overflow=hidden;rotatable=0;points=[[0,0.5],[1,0.5]];portConstraint=eastwest;" parent="customers-0" vertex="1">
          <mxGeometry y="364" width="240" height="26" as="geometry"/>
        </mxCell>
        <mxCell id="customers-0-15" value="address_cont" style="text;align=left;verticalAlign=top;spacingLeft=4;spacingRight=4;overflow=hidden;rotatable=0;points=[[0,0.5],[1,0.5]];portConstraint=eastwest;" parent="customers-0" vertex="1">
          <mxGeometry y="390" width="240" height="26" as="geometry"/>
        </mxCell>
        <mxCell id="customers-0-16" value="phone" style="text;align=left;verticalAlign=top;spacingLeft=4;spacingRight=4;overflow=hidden;rotatable=0;points=[[0,0.5],[1,0.5]];portConstraint=eastwest;" parent="customers-0" vertex="1">
          <mxGeometry y="416" width="240" height="26" as="geometry"/>
        </mxCell>
        <mxCell id="customers-0-17" value="email_princ" style="text;align=left;verticalAlign=top;spacingLeft=4;spacingRight=4;overflow=hidden;rotatable=0;points=[[0,0.5],[1,0.5]];portConstraint=eastwest;" parent="customers-0" vertex="1">
          <mxGeometry y="442" width="240" height="26" as="geometry"/>
        </mxCell>
        <mxCell id="customers-0-18" value="zip_code" style="text;align=left;verticalAlign=top;spacingLeft=4;spacingRight=4;overflow=hidden;rotatable=0;points=[[0,0.5],[1,0.5]];portConstraint=eastwest;" parent="customers-0" vertex="1">
          <mxGeometry y="468" width="240" height="26" as="geometry"/>
        </mxCell>
        <mxCell id="customers-0-19" value="city" style="text;align=left;verticalAlign=top;spacingLeft=4;spacingRight=4;overflow=hidden;rotatable=0;points=[[0,0.5],[1,0.5]];portConstraint=eastwest;" parent="customers-0" vertex="1">
          <mxGeometry y="494" width="240" height="26" as="geometry"/>
        </mxCell>
        <mxCell id="customers-0-20" value="state" style="text;align=left;verticalAlign=top;spacingLeft=4;spacingRight=4;overflow=hidden;rotatable=0;points=[[0,0.5],[1,0.5]];portConstraint=eastwest;" parent="customers-0" vertex="1">
          <mxGeometry y="520" width="240" height="26" as="geometry"/>
        </mxCell>
        <mxCell id="customers-0-21" value="tpv_user_nif" style="text;align=left;verticalAlign=top;spacingLeft=4;spacingRight=4;overflow=hidden;rotatable=0;points=[[0,0.5],[1,0.5]];portConstraint=eastwest;" parent="customers-0" vertex="1">
          <mxGeometry y="546" width="240" height="26" as="geometry"/>
        </mxCell>
        <mxCell id="customers-0-22" value="tpv_ck" style="text;align=left;verticalAlign=top;spacingLeft=4;spacingRight=4;overflow=hidden;rotatable=0;points=[[0,0.5],[1,0.5]];portConstraint=eastwest;" parent="customers-0" vertex="1">
          <mxGeometry y="572" width="240" height="26" as="geometry"/>
        </mxCell>
        <mxCell id="customers-0-23" value="facturas_ck" style="text;align=left;verticalAlign=top;spacingLeft=4;spacingRight=4;overflow=hidden;rotatable=0;points=[[0,0.5],[1,0.5]];portConstraint=eastwest;" parent="customers-0" vertex="1">
          <mxGeometry y="598" width="240" height="26" as="geometry"/>
        </mxCell>
        <mxCell id="customers-0-24" value="telepeajes_ck" style="text;align=left;verticalAlign=top;spacingLeft=4;spacingRight=4;overflow=hidden;rotatable=0;points=[[0,0.5],[1,0.5]];portConstraint=eastwest;" parent="customers-0" vertex="1">
          <mxGeometry y="624" width="240" height="26" as="geometry"/>
        </mxCell>
        <mxCell id="customers-0-25" value="parkings_ck" style="text;align=left;verticalAlign=top;spacingLeft=4;spacingRight=4;overflow=hidden;rotatable=0;points=[[0,0.5],[1,0.5]];portConstraint=eastwest;" parent="customers-0" vertex="1">
          <mxGeometry y="650" width="240" height="26" as="geometry"/>
        </mxCell>
        <mxCell id="customers-0-26" value="tarifas_ck" style="text;align=left;verticalAlign=top;spacingLeft=4;spacingRight=4;overflow=hidden;rotatable=0;points=[[0,0.5],[1,0.5]];portConstraint=eastwest;" parent="customers-0" vertex="1">
          <mxGeometry y="676" width="240" height="26" as="geometry"/>
        </mxCell>
        <mxCell id="customers-0-27" value="tarjetas_eu_ck" style="text;align=left;verticalAlign=top;spacingLeft=4;spacingRight=4;overflow=hidden;rotatable=0;points=[[0,0.5],[1,0.5]];portConstraint=eastwest;" parent="customers-0" vertex="1">
          <mxGeometry y="702" width="240" height="26" as="geometry"/>
        </mxCell>
        <mxCell id="customers-0-28" value="ferry_ck" style="text;align=left;verticalAlign=top;spacingLeft=4;spacingRight=4;overflow=hidden;rotatable=0;points=[[0,0.5],[1,0.5]];portConstraint=eastwest;" parent="customers-0" vertex="1">
          <mxGeometry y="728" width="240" height="26" as="geometry"/>
        </mxCell>
        <mxCell id="customers-0-29" value="globalpay_ck" style="text;align=left;verticalAlign=top;spacingLeft=4;spacingRight=4;overflow=hidden;rotatable=0;points=[[0,0.5],[1,0.5]];portConstraint=eastwest;" parent="customers-0" vertex="1">
          <mxGeometry y="754" width="240" height="26" as="geometry"/>
        </mxCell>
        <mxCell id="customers-0-30" value="risk_type" style="text;align=left;verticalAlign=top;spacingLeft=4;spacingRight=4;overflow=hidden;rotatable=0;points=[[0,0.5],[1,0.5]];portConstraint=eastwest;" parent="customers-0" vertex="1">
          <mxGeometry y="780" width="240" height="26" as="geometry"/>
        </mxCell>
        <mxCell id="customers-0-31" value="globalwallet_ck" style="text;align=left;verticalAlign=top;spacingLeft=4;spacingRight=4;overflow=hidden;rotatable=0;points=[[0,0.5],[1,0.5]];portConstraint=eastwest;" parent="customers-0" vertex="1">
          <mxGeometry y="806" width="240" height="26" as="geometry"/>
        </mxCell>
        <mxCell id="customers-0-32" value="globalwallet_emails" style="text;align=left;verticalAlign=top;spacingLeft=4;spacingRight=4;overflow=hidden;rotatable=0;points=[[0,0.5],[1,0.5]];portConstraint=eastwest;" parent="customers-0" vertex="1">
          <mxGeometry y="832" width="240" height="26" as="geometry"/>
        </mxCell>
        <mxCell id="customers-0-33" value="truckwash_ck" style="text;align=left;verticalAlign=top;spacingLeft=4;spacingRight=4;overflow=hidden;rotatable=0;points=[[0,0.5],[1,0.5]];portConstraint=eastwest;" parent="customers-0" vertex="1">
          <mxGeometry y="858" width="240" height="26" as="geometry"/>
        </mxCell>
        <mxCell id="customers-0-34" value="global_contract_nb" style="text;align=left;verticalAlign=top;spacingLeft=4;spacingRight=4;overflow=hidden;rotatable=0;points=[[0,0.5],[1,0.5]];portConstraint=eastwest;" parent="customers-0" vertex="1">
          <mxGeometry y="884" width="240" height="26" as="geometry"/>
        </mxCell>
        <mxCell id="customers-0-35" value="agent_id" style="text;align=left;verticalAlign=top;spacingLeft=4;spacingRight=4;overflow=hidden;rotatable=0;points=[[0,0.5],[1,0.5]];portConstraint=eastwest;" parent="customers-0" vertex="1">
          <mxGeometry y="910" width="240" height="26" as="geometry"/>
        </mxCell>
        <mxCell id="customers-0-36" value="axxes_contract_nb" style="text;align=left;verticalAlign=top;spacingLeft=4;spacingRight=4;overflow=hidden;rotatable=0;points=[[0,0.5],[1,0.5]];portConstraint=eastwest;" parent="customers-0" vertex="1">
          <mxGeometry y="936" width="240" height="26" as="geometry"/>
        </mxCell>
        <mxCell id="customers-0-37" value="axxes_cust_id" style="text;align=left;verticalAlign=top;spacingLeft=4;spacingRight=4;overflow=hidden;rotatable=0;points=[[0,0.5],[1,0.5]];portConstraint=eastwest;" parent="customers-0" vertex="1">
          <mxGeometry y="962" width="240" height="26" as="geometry"/>
        </mxCell>
        <mxCell id="customers-0-38" value="global_order_nb" style="text;align=left;verticalAlign=top;spacingLeft=4;spacingRight=4;overflow=hidden;rotatable=0;points=[[0,0.5],[1,0.5]];portConstraint=eastwest;" parent="customers-0" vertex="1">
          <mxGeometry y="988" width="240" height="26" as="geometry"/>
        </mxCell>
        <mxCell id="customers-0-39" value="axxes_status" style="text;align=left;verticalAlign=top;spacingLeft=4;spacingRight=4;overflow=hidden;rotatable=0;points=[[0,0.5],[1,0.5]];portConstraint=eastwest;" parent="customers-0" vertex="1">
          <mxGeometry y="1014" width="240" height="26" as="geometry"/>
        </mxCell>
        <mxCell id="customers-0-40" value="ingenico_status" style="text;align=left;verticalAlign=top;spacingLeft=4;spacingRight=4;overflow=hidden;rotatable=0;points=[[0,0.5],[1,0.5]];portConstraint=eastwest;" parent="customers-0" vertex="1">
          <mxGeometry y="1040" width="240" height="26" as="geometry"/>
        </mxCell>
        <mxCell id="customers-0-41" value="telepass_status" style="text;align=left;verticalAlign=top;spacingLeft=4;spacingRight=4;overflow=hidden;rotatable=0;points=[[0,0.5],[1,0.5]];portConstraint=eastwest;" parent="customers-0" vertex="1">
          <mxGeometry y="1066" width="240" height="26" as="geometry"/>
        </mxCell>
        <mxCell id="customers-0-42" value="block_file_number" style="text;align=left;verticalAlign=top;spacingLeft=4;spacingRight=4;overflow=hidden;rotatable=0;points=[[0,0.5],[1,0.5]];portConstraint=eastwest;" parent="customers-0" vertex="1">
          <mxGeometry y="1092" width="240" height="26" as="geometry"/>
        </mxCell>
        <mxCell id="customers-0-43" value="terminate_file_number" style="text;align=left;verticalAlign=top;spacingLeft=4;spacingRight=4;overflow=hidden;rotatable=0;points=[[0,0.5],[1,0.5]];portConstraint=eastwest;" parent="customers-0" vertex="1">
          <mxGeometry y="1118" width="240" height="26" as="geometry"/>
        </mxCell>
        <mxCell id="customers-0-44" value="contaplus" style="text;align=left;verticalAlign=top;spacingLeft=4;spacingRight=4;overflow=hidden;rotatable=0;points=[[0,0.5],[1,0.5]];portConstraint=eastwest;" parent="customers-0" vertex="1">
          <mxGeometry y="1144" width="240" height="26" as="geometry"/>
        </mxCell>
        <mxCell id="customers-0-45" value="erased" style="text;align=left;verticalAlign=top;spacingLeft=4;spacingRight=4;overflow=hidden;rotatable=0;points=[[0,0.5],[1,0.5]];portConstraint=eastwest;" parent="customers-0" vertex="1">
          <mxGeometry y="1170" width="240" height="26" as="geometry"/>
        </mxCell>
        <mxCell id="customers-0-46" value="note" style="text;align=left;verticalAlign=top;spacingLeft=4;spacingRight=4;overflow=hidden;rotatable=0;points=[[0,0.5],[1,0.5]];portConstraint=eastwest;" parent="customers-0" vertex="1">
          <mxGeometry y="1196" width="240" height="26" as="geometry"/>
        </mxCell>
        <mxCell id="customers-0-47" value="status" style="text;align=left;verticalAlign=top;spacingLeft=4;spacingRight=4;overflow=hidden;rotatable=0;points=[[0,0.5],[1,0.5]];portConstraint=eastwest;" parent="customers-0" vertex="1">
          <mxGeometry y="1222" width="240" height="26" as="geometry"/>
        </mxCell>
        <mxCell id="customers-0-48" value="ferry_price" style="text;align=left;verticalAlign=top;spacingLeft=4;spacingRight=4;overflow=hidden;rotatable=0;points=[[0,0.5],[1,0.5]];portConstraint=eastwest;" parent="customers-0" vertex="1">
          <mxGeometry y="1248" width="240" height="26" as="geometry"/>
        </mxCell>
        <mxCell id="customers-0-49" value="dts_customer" style="text;align=left;verticalAlign=top;spacingLeft=4;spacingRight=4;overflow=hidden;rotatable=0;points=[[0,0.5],[1,0.5]];portConstraint=eastwest;" parent="customers-0" vertex="1">
          <mxGeometry y="1274" width="240" height="26" as="geometry"/>
        </mxCell>
        <mxCell id="customers-0-50" value="created_at" style="text;align=left;verticalAlign=top;spacingLeft=4;spacingRight=4;overflow=hidden;rotatable=0;points=[[0,0.5],[1,0.5]];portConstraint=eastwest;" parent="customers-0" vertex="1">
          <mxGeometry y="1300" width="240" height="26" as="geometry"/>
        </mxCell>
        <mxCell id="customers-0-51" value="updated_at" style="text;align=left;verticalAlign=top;spacingLeft=4;spacingRight=4;overflow=hidden;rotatable=0;points=[[0,0.5],[1,0.5]];portConstraint=eastwest;" parent="customers-0" vertex="1">
          <mxGeometry y="1326" width="240" height="26" as="geometry"/>
        </mxCell>
        <mxCell id="customers-0-52" value="deleted_at" style="text;align=left;verticalAlign=top;spacingLeft=4;spacingRight=4;overflow=hidden;rotatable=0;points=[[0,0.5],[1,0.5]];portConstraint=eastwest;" parent="customers-0" vertex="1">
          <mxGeometry y="1352" width="240" height="26" as="geometry"/>
        </mxCell>
        <mxCell id="customer_invoices-0" value="customer_invoices" style="swimlane;fontStyle=2;align=center;verticalAlign=top;childLayout=stackLayout;horizontal=1;startSize=26;horizontalStack=0;resizeParent=1;resizeLast=0;collapsible=1;marginBottom=0;rounded=0;shadow=0;strokeWidth=1;" parent="1" vertex="1">
          <mxGeometry x="220" y="1532" width="240" height="732" as="geometry">
            <mxRectangle x="230" y="1552" width="240" height="26" as="alternateBounds"/>
          </mxGeometry>
        </mxCell>
        <mxCell id="customer_invoices-0-1" value="id" style="text;align=left;verticalAlign=top;spacingLeft=4;spacingRight=4;overflow=hidden;rotatable=0;points=[[0,0.5],[1,0.5]];portConstraint=eastwest;" parent="customer_invoices-0" vertex="1">
          <mxGeometry y="26" width="240" height="26" as="geometry"/>
        </mxCell>
        <mxCell id="customer_invoices-0-2" value="customer_id" style="text;align=left;verticalAlign=top;spacingLeft=4;spacingRight=4;overflow=hidden;rotatable=0;points=[[0,0.5],[1,0.5]];portConstraint=eastwest;" parent="customer_invoices-0" vertex="1">
          <mxGeometry y="52" width="240" height="26" as="geometry"/>
        </mxCell>
        <mxCell id="customer_invoices-0-3" value="bank_id" style="text;align=left;verticalAlign=top;spacingLeft=4;spacingRight=4;overflow=hidden;rotatable=0;points=[[0,0.5],[1,0.5]];portConstraint=eastwest;" parent="customer_invoices-0" vertex="1">
          <mxGeometry y="78" width="240" height="26" as="geometry"/>
        </mxCell>
        <mxCell id="customer_invoices-0-4" value="remitance_type" style="text;align=left;verticalAlign=top;spacingLeft=4;spacingRight=4;overflow=hidden;rotatable=0;points=[[0,0.5],[1,0.5]];portConstraint=eastwest;" parent="customer_invoices-0" vertex="1">
          <mxGeometry y="104" width="240" height="26" as="geometry"/>
        </mxCell>
        <mxCell id="customer_invoices-0-5" value="remittance_type_id" style="text;align=left;verticalAlign=top;spacingLeft=4;spacingRight=4;overflow=hidden;rotatable=0;points=[[0,0.5],[1,0.5]];portConstraint=eastwest;" parent="customer_invoices-0" vertex="1">
          <mxGeometry y="130" width="240" height="26" as="geometry"/>
        </mxCell>
        <mxCell id="customer_invoices-0-6" value="truckwash_cash_payment" style="text;align=left;verticalAlign=top;spacingLeft=4;spacingRight=4;overflow=hidden;rotatable=0;points=[[0,0.5],[1,0.5]];portConstraint=eastwest;" parent="customer_invoices-0" vertex="1">
          <mxGeometry y="156" width="240" height="26" as="geometry"/>
        </mxCell>
        <mxCell id="customer_invoices-0-7" value="bank_name" style="text;align=left;verticalAlign=top;spacingLeft=4;spacingRight=4;overflow=hidden;rotatable=0;points=[[0,0.5],[1,0.5]];portConstraint=eastwest;" parent="customer_invoices-0" vertex="1">
          <mxGeometry y="182" width="240" height="26" as="geometry"/>
        </mxCell>
        <mxCell id="customer_invoices-0-8" value="iban" style="text;align=left;verticalAlign=top;spacingLeft=4;spacingRight=4;overflow=hidden;rotatable=0;points=[[0,0.5],[1,0.5]];portConstraint=eastwest;" parent="customer_invoices-0" vertex="1">
          <mxGeometry y="208" width="240" height="26" as="geometry"/>
        </mxCell>
        <mxCell id="customer_invoices-0-9" value="swift_bic" style="text;align=left;verticalAlign=top;spacingLeft=4;spacingRight=4;overflow=hidden;rotatable=0;points=[[0,0.5],[1,0.5]];portConstraint=eastwest;" parent="customer_invoices-0" vertex="1">
          <mxGeometry y="234" width="240" height="26" as="geometry"/>
        </mxCell>
        <mxCell id="customer_invoices-0-10" value="bank_account" style="text;align=left;verticalAlign=top;spacingLeft=4;spacingRight=4;overflow=hidden;rotatable=0;points=[[0,0.5],[1,0.5]];portConstraint=eastwest;" parent="customer_invoices-0" vertex="1">
          <mxGeometry y="260" width="240" height="26" as="geometry"/>
        </mxCell>
        <mxCell id="customer_invoices-0-11" value="account_holder" style="text;align=left;verticalAlign=top;spacingLeft=4;spacingRight=4;overflow=hidden;rotatable=0;points=[[0,0.5],[1,0.5]];portConstraint=eastwest;" parent="customer_invoices-0" vertex="1">
          <mxGeometry y="286" width="240" height="26" as="geometry"/>
        </mxCell>
        <mxCell id="customer_invoices-0-12" value="b2b_received_data" style="text;align=left;verticalAlign=top;spacingLeft=4;spacingRight=4;overflow=hidden;rotatable=0;points=[[0,0.5],[1,0.5]];portConstraint=eastwest;" parent="customer_invoices-0" vertex="1">
          <mxGeometry y="312" width="240" height="26" as="geometry"/>
        </mxCell>
        <mxCell id="customer_invoices-0-13" value="b2b_received_user" style="text;align=left;verticalAlign=top;spacingLeft=4;spacingRight=4;overflow=hidden;rotatable=0;points=[[0,0.5],[1,0.5]];portConstraint=eastwest;" parent="customer_invoices-0" vertex="1">
          <mxGeometry y="338" width="240" height="26" as="geometry"/>
        </mxCell>
        <mxCell id="customer_invoices-0-14" value="received_b2b" style="text;align=left;verticalAlign=top;spacingLeft=4;spacingRight=4;overflow=hidden;rotatable=0;points=[[0,0.5],[1,0.5]];portConstraint=eastwest;" parent="customer_invoices-0" vertex="1">
          <mxGeometry y="364" width="240" height="26" as="geometry"/>
        </mxCell>
        <mxCell id="customer_invoices-0-15" value="send_b2b" style="text;align=left;verticalAlign=top;spacingLeft=4;spacingRight=4;overflow=hidden;rotatable=0;points=[[0,0.5],[1,0.5]];portConstraint=eastwest;" parent="customer_invoices-0" vertex="1">
          <mxGeometry y="390" width="240" height="26" as="geometry"/>
        </mxCell>
        <mxCell id="customer_invoices-0-16" value="show_invoice_details" style="text;align=left;verticalAlign=top;spacingLeft=4;spacingRight=4;overflow=hidden;rotatable=0;points=[[0,0.5],[1,0.5]];portConstraint=eastwest;" parent="customer_invoices-0" vertex="1">
          <mxGeometry y="416" width="240" height="26" as="geometry"/>
        </mxCell>
        <mxCell id="customer_invoices-0-17" value="min_accounting_reserved_coding" style="text;align=left;verticalAlign=top;spacingLeft=4;spacingRight=4;overflow=hidden;rotatable=0;points=[[0,0.5],[1,0.5]];portConstraint=eastwest;" parent="customer_invoices-0" vertex="1">
          <mxGeometry y="442" width="240" height="26" as="geometry"/>
        </mxCell>
        <mxCell id="customer_invoices-0-18" value="max_accounting_reserved_coding" style="text;align=left;verticalAlign=top;spacingLeft=4;spacingRight=4;overflow=hidden;rotatable=0;points=[[0,0.5],[1,0.5]];portConstraint=eastwest;" parent="customer_invoices-0" vertex="1">
          <mxGeometry y="468" width="240" height="26" as="geometry"/>
        </mxCell>
        <mxCell id="customer_invoices-0-19" value="due_date" style="text;align=left;verticalAlign=top;spacingLeft=4;spacingRight=4;overflow=hidden;rotatable=0;points=[[0,0.5],[1,0.5]];portConstraint=eastwest;" parent="customer_invoices-0" vertex="1">
          <mxGeometry y="494" width="240" height="26" as="geometry"/>
        </mxCell>
        <mxCell id="customer_invoices-0-20" value="due_days_date" style="text;align=left;verticalAlign=top;spacingLeft=4;spacingRight=4;overflow=hidden;rotatable=0;points=[[0,0.5],[1,0.5]];portConstraint=eastwest;" parent="customer_invoices-0" vertex="1">
          <mxGeometry y="520" width="240" height="26" as="geometry"/>
        </mxCell>
        <mxCell id="customer_invoices-0-21" value="invoice_serial" style="text;align=left;verticalAlign=top;spacingLeft=4;spacingRight=4;overflow=hidden;rotatable=0;points=[[0,0.5],[1,0.5]];portConstraint=eastwest;" parent="customer_invoices-0" vertex="1">
          <mxGeometry y="546" width="240" height="26" as="geometry"/>
        </mxCell>
        <mxCell id="customer_invoices-0-22" value="invoice_serial_gas_b" style="text;align=left;verticalAlign=top;spacingLeft=4;spacingRight=4;overflow=hidden;rotatable=0;points=[[0,0.5],[1,0.5]];portConstraint=eastwest;" parent="customer_invoices-0" vertex="1">
          <mxGeometry y="572" width="240" height="26" as="geometry"/>
        </mxCell>
        <mxCell id="customer_invoices-0-23" value="invoice_serial_globalwallet" style="text;align=left;verticalAlign=top;spacingLeft=4;spacingRight=4;overflow=hidden;rotatable=0;points=[[0,0.5],[1,0.5]];portConstraint=eastwest;" parent="customer_invoices-0" vertex="1">
          <mxGeometry y="598" width="240" height="26" as="geometry"/>
        </mxCell>
        <mxCell id="customer_invoices-0-24" value="credit_invoice_serial" style="text;align=left;verticalAlign=top;spacingLeft=4;spacingRight=4;overflow=hidden;rotatable=0;points=[[0,0.5],[1,0.5]];portConstraint=eastwest;" parent="customer_invoices-0" vertex="1">
          <mxGeometry y="624" width="240" height="26" as="geometry"/>
        </mxCell>
        <mxCell id="customer_invoices-0-25" value="created_at" style="text;align=left;verticalAlign=top;spacingLeft=4;spacingRight=4;overflow=hidden;rotatable=0;points=[[0,0.5],[1,0.5]];portConstraint=eastwest;" parent="customer_invoices-0" vertex="1">
          <mxGeometry y="650" width="240" height="26" as="geometry"/>
        </mxCell>
        <mxCell id="customer_invoices-0-26" value="updated_at" style="text;align=left;verticalAlign=top;spacingLeft=4;spacingRight=4;overflow=hidden;rotatable=0;points=[[0,0.5],[1,0.5]];portConstraint=eastwest;" parent="customer_invoices-0" vertex="1">
          <mxGeometry y="676" width="240" height="26" as="geometry"/>
        </mxCell>
        <mxCell id="customer_invoices-0-27" value="deleted_at" style="text;align=left;verticalAlign=top;spacingLeft=4;spacingRight=4;overflow=hidden;rotatable=0;points=[[0,0.5],[1,0.5]];portConstraint=eastwest;" parent="customer_invoices-0" vertex="1">
          <mxGeometry y="702" width="240" height="26" as="geometry"/>
        </mxCell>
        <mxCell id="customer_emails-0" value="customer_emails" style="swimlane;fontStyle=2;align=center;verticalAlign=top;childLayout=stackLayout;horizontal=1;startSize=26;horizontalStack=0;resizeParent=1;resizeLast=0;collapsible=1;marginBottom=0;rounded=0;shadow=0;strokeWidth=1;" parent="1" vertex="1">
          <mxGeometry x="220" y="2294" width="240" height="212" as="geometry">
            <mxRectangle x="230" y="2314" width="240" height="26" as="alternateBounds"/>
          </mxGeometry>
        </mxCell>
        <mxCell id="customer_emails-0-1" value="id" style="text;align=left;verticalAlign=top;spacingLeft=4;spacingRight=4;overflow=hidden;rotatable=0;points=[[0,0.5],[1,0.5]];portConstraint=eastwest;" parent="customer_emails-0" vertex="1">
          <mxGeometry y="26" width="240" height="26" as="geometry"/>
        </mxCell>
        <mxCell id="customer_emails-0-2" value="customer_id" style="text;align=left;verticalAlign=top;spacingLeft=4;spacingRight=4;overflow=hidden;rotatable=0;points=[[0,0.5],[1,0.5]];portConstraint=eastwest;" parent="customer_emails-0" vertex="1">
          <mxGeometry y="52" width="240" height="26" as="geometry"/>
        </mxCell>
        <mxCell id="customer_emails-0-3" value="email" style="text;align=left;verticalAlign=top;spacingLeft=4;spacingRight=4;overflow=hidden;rotatable=0;points=[[0,0.5],[1,0.5]];portConstraint=eastwest;" parent="customer_emails-0" vertex="1">
          <mxGeometry y="78" width="240" height="26" as="geometry"/>
        </mxCell>
        <mxCell id="customer_emails-0-4" value="primary" style="text;align=left;verticalAlign=top;spacingLeft=4;spacingRight=4;overflow=hidden;rotatable=0;points=[[0,0.5],[1,0.5]];portConstraint=eastwest;" parent="customer_emails-0" vertex="1">
          <mxGeometry y="104" width="240" height="26" as="geometry"/>
        </mxCell>
        <mxCell id="customer_emails-0-5" value="created_at" style="text;align=left;verticalAlign=top;spacingLeft=4;spacingRight=4;overflow=hidden;rotatable=0;points=[[0,0.5],[1,0.5]];portConstraint=eastwest;" parent="customer_emails-0" vertex="1">
          <mxGeometry y="130" width="240" height="26" as="geometry"/>
        </mxCell>
        <mxCell id="customer_emails-0-6" value="updated_at" style="text;align=left;verticalAlign=top;spacingLeft=4;spacingRight=4;overflow=hidden;rotatable=0;points=[[0,0.5],[1,0.5]];portConstraint=eastwest;" parent="customer_emails-0" vertex="1">
          <mxGeometry y="156" width="240" height="26" as="geometry"/>
        </mxCell>
        <mxCell id="customer_emails-0-7" value="deleted_at" style="text;align=left;verticalAlign=top;spacingLeft=4;spacingRight=4;overflow=hidden;rotatable=0;points=[[0,0.5],[1,0.5]];portConstraint=eastwest;" parent="customer_emails-0" vertex="1">
          <mxGeometry y="182" width="240" height="26" as="geometry"/>
        </mxCell>
        <mxCell id="alvic_customers-0" value="alvic_customers" style="swimlane;fontStyle=2;align=center;verticalAlign=top;childLayout=stackLayout;horizontal=1;startSize=26;horizontalStack=0;resizeParent=1;resizeLast=0;collapsible=1;marginBottom=0;rounded=0;shadow=0;strokeWidth=1;" parent="1" vertex="1">
          <mxGeometry x="220" y="2536" width="240" height="342" as="geometry">
            <mxRectangle x="230" y="2556" width="240" height="26" as="alternateBounds"/>
          </mxGeometry>
        </mxCell>
        <mxCell id="alvic_customers-0-1" value="id" style="text;align=left;verticalAlign=top;spacingLeft=4;spacingRight=4;overflow=hidden;rotatable=0;points=[[0,0.5],[1,0.5]];portConstraint=eastwest;" parent="alvic_customers-0" vertex="1">
          <mxGeometry y="26" width="240" height="26" as="geometry"/>
        </mxCell>
        <mxCell id="alvic_customers-0-2" value="customer_id" style="text;align=left;verticalAlign=top;spacingLeft=4;spacingRight=4;overflow=hidden;rotatable=0;points=[[0,0.5],[1,0.5]];portConstraint=eastwest;" parent="alvic_customers-0" vertex="1">
          <mxGeometry y="52" width="240" height="26" as="geometry"/>
        </mxCell>
        <mxCell id="alvic_customers-0-3" value="customer_code" style="text;align=left;verticalAlign=top;spacingLeft=4;spacingRight=4;overflow=hidden;rotatable=0;points=[[0,0.5],[1,0.5]];portConstraint=eastwest;" parent="alvic_customers-0" vertex="1">
          <mxGeometry y="78" width="240" height="26" as="geometry"/>
        </mxCell>
        <mxCell id="alvic_customers-0-4" value="company_name" style="text;align=left;verticalAlign=top;spacingLeft=4;spacingRight=4;overflow=hidden;rotatable=0;points=[[0,0.5],[1,0.5]];portConstraint=eastwest;" parent="alvic_customers-0" vertex="1">
          <mxGeometry y="104" width="240" height="26" as="geometry"/>
        </mxCell>
        <mxCell id="alvic_customers-0-5" value="password" style="text;align=left;verticalAlign=top;spacingLeft=4;spacingRight=4;overflow=hidden;rotatable=0;points=[[0,0.5],[1,0.5]];portConstraint=eastwest;" parent="alvic_customers-0" vertex="1">
          <mxGeometry y="130" width="240" height="26" as="geometry"/>
        </mxCell>
        <mxCell id="alvic_customers-0-6" value="web_center" style="text;align=left;verticalAlign=top;spacingLeft=4;spacingRight=4;overflow=hidden;rotatable=0;points=[[0,0.5],[1,0.5]];portConstraint=eastwest;" parent="alvic_customers-0" vertex="1">
          <mxGeometry y="156" width="240" height="26" as="geometry"/>
        </mxCell>
        <mxCell id="alvic_customers-0-7" value="web_octan" style="text;align=left;verticalAlign=top;spacingLeft=4;spacingRight=4;overflow=hidden;rotatable=0;points=[[0,0.5],[1,0.5]];portConstraint=eastwest;" parent="alvic_customers-0" vertex="1">
          <mxGeometry y="182" width="240" height="26" as="geometry"/>
        </mxCell>
        <mxCell id="alvic_customers-0-8" value="status_web_center" style="text;align=left;verticalAlign=top;spacingLeft=4;spacingRight=4;overflow=hidden;rotatable=0;points=[[0,0.5],[1,0.5]];portConstraint=eastwest;" parent="alvic_customers-0" vertex="1">
          <mxGeometry y="208" width="240" height="26" as="geometry"/>
        </mxCell>
        <mxCell id="alvic_customers-0-9" value="status_web_octan" style="text;align=left;verticalAlign=top;spacingLeft=4;spacingRight=4;overflow=hidden;rotatable=0;points=[[0,0.5],[1,0.5]];portConstraint=eastwest;" parent="alvic_customers-0" vertex="1">
          <mxGeometry y="234" width="240" height="26" as="geometry"/>
        </mxCell>
        <mxCell id="alvic_customers-0-10" value="created_at" style="text;align=left;verticalAlign=top;spacingLeft=4;spacingRight=4;overflow=hidden;rotatable=0;points=[[0,0.5],[1,0.5]];portConstraint=eastwest;" parent="alvic_customers-0" vertex="1">
          <mxGeometry y="260" width="240" height="26" as="geometry"/>
        </mxCell>
        <mxCell id="alvic_customers-0-11" value="updated_at" style="text;align=left;verticalAlign=top;spacingLeft=4;spacingRight=4;overflow=hidden;rotatable=0;points=[[0,0.5],[1,0.5]];portConstraint=eastwest;" parent="alvic_customers-0" vertex="1">
          <mxGeometry y="286" width="240" height="26" as="geometry"/>
        </mxCell>
        <mxCell id="alvic_customers-0-12" value="deleted_at" style="text;align=left;verticalAlign=top;spacingLeft=4;spacingRight=4;overflow=hidden;rotatable=0;points=[[0,0.5],[1,0.5]];portConstraint=eastwest;" parent="alvic_customers-0" vertex="1">
          <mxGeometry y="312" width="240" height="26" as="geometry"/>
        </mxCell>
        <mxCell id="alvic_customer_emails-0" value="alvic_customer_emails" style="swimlane;fontStyle=2;align=center;verticalAlign=top;childLayout=stackLayout;horizontal=1;startSize=26;horizontalStack=0;resizeParent=1;resizeLast=0;collapsible=1;marginBottom=0;rounded=0;shadow=0;strokeWidth=1;" parent="1" vertex="1">
          <mxGeometry x="220" y="2908" width="240" height="212" as="geometry">
            <mxRectangle x="230" y="2928" width="240" height="26" as="alternateBounds"/>
          </mxGeometry>
        </mxCell>
        <mxCell id="alvic_customer_emails-0-1" value="id" style="text;align=left;verticalAlign=top;spacingLeft=4;spacingRight=4;overflow=hidden;rotatable=0;points=[[0,0.5],[1,0.5]];portConstraint=eastwest;" parent="alvic_customer_emails-0" vertex="1">
          <mxGeometry y="26" width="240" height="26" as="geometry"/>
        </mxCell>
        <mxCell id="alvic_customer_emails-0-2" value="alvic_customer_id" style="text;align=left;verticalAlign=top;spacingLeft=4;spacingRight=4;overflow=hidden;rotatable=0;points=[[0,0.5],[1,0.5]];portConstraint=eastwest;" parent="alvic_customer_emails-0" vertex="1">
          <mxGeometry y="52" width="240" height="26" as="geometry"/>
        </mxCell>
        <mxCell id="alvic_customer_emails-0-3" value="email" style="text;align=left;verticalAlign=top;spacingLeft=4;spacingRight=4;overflow=hidden;rotatable=0;points=[[0,0.5],[1,0.5]];portConstraint=eastwest;" parent="alvic_customer_emails-0" vertex="1">
          <mxGeometry y="78" width="240" height="26" as="geometry"/>
        </mxCell>
        <mxCell id="alvic_customer_emails-0-4" value="primary" style="text;align=left;verticalAlign=top;spacingLeft=4;spacingRight=4;overflow=hidden;rotatable=0;points=[[0,0.5],[1,0.5]];portConstraint=eastwest;" parent="alvic_customer_emails-0" vertex="1">
          <mxGeometry y="104" width="240" height="26" as="geometry"/>
        </mxCell>
        <mxCell id="alvic_customer_emails-0-5" value="created_at" style="text;align=left;verticalAlign=top;spacingLeft=4;spacingRight=4;overflow=hidden;rotatable=0;points=[[0,0.5],[1,0.5]];portConstraint=eastwest;" parent="alvic_customer_emails-0" vertex="1">
          <mxGeometry y="130" width="240" height="26" as="geometry"/>
        </mxCell>
        <mxCell id="alvic_customer_emails-0-6" value="updated_at" style="text;align=left;verticalAlign=top;spacingLeft=4;spacingRight=4;overflow=hidden;rotatable=0;points=[[0,0.5],[1,0.5]];portConstraint=eastwest;" parent="alvic_customer_emails-0" vertex="1">
          <mxGeometry y="156" width="240" height="26" as="geometry"/>
        </mxCell>
        <mxCell id="alvic_customer_emails-0-7" value="deleted_at" style="text;align=left;verticalAlign=top;spacingLeft=4;spacingRight=4;overflow=hidden;rotatable=0;points=[[0,0.5],[1,0.5]];portConstraint=eastwest;" parent="alvic_customer_emails-0" vertex="1">
          <mxGeometry y="182" width="240" height="26" as="geometry"/>
        </mxCell>
      </root>
    </mxGraphModel>
  </diagram>
</mxfile>